PathFileType  4	(X/Y/Z) C:\Users\antoi\Documents\MyRepositories\mobilecap\ResultsAnalysis
DataRate	CameraRate	NumFrames	NumMarkers	Units	OrigDataRate	OrigDataStartFrame	OrigNumFrames
100.0	100.0	4	51	mm	100.0	1100	1257
Frame#	Time	r_knee			r_shank_antsup			r_ankle			r_calc			r_5meta			r_toe			L_knee			L_shank_antsup			L_ankle			L_calc			L_5meta			L_toe			r_sh2			r_sh3			r_sh4			L_sh2			L_sh3			r_thigh1			r_thigh2			r_thigh3			r_thigh4			r_thigh5			L_thigh1			L_thigh2			L_thigh3			L_thigh4			r.ASIS			r.PSIS			L.ASIS			L.PSIS			C7			R_Shoulder			L_Shoulder			R_Sternum			L_Sternum			R_humerus			R_elbow_med			R_elbow_lat			R_forearm			R_wrist_radius			R_wrist_ulna			L_humerus			L_elbow_med			L_elbow_lat			L_forearm			L_wrist_radius			L_wrist_ulna			R_HJC			L_HJC			R_HJC_reg			L_HJC_reg			
		X1	Y1	Z1	X2	Y2	Z2	X3	Y3	Z3	X4	Y4	Z4	X5	Y5	Z5	X6	Y6	Z6	X7	Y7	Z7	X8	Y8	Z8	X9	Y9	Z9	X10	Y10	Z10	X11	Y11	Z11	X12	Y12	Z12	X13	Y13	Z13	X14	Y14	Z14	X15	Y15	Z15	X16	Y16	Z16	X17	Y17	Z17	X18	Y18	Z18	X19	Y19	Z19	X20	Y20	Z20	X21	Y21	Z21	X22	Y22	Z22	X23	Y23	Z23	X24	Y24	Z24	X25	Y25	Z25	X26	Y26	Z26	X27	Y27	Z27	X28	Y28	Z28	X29	Y29	Z29	X30	Y30	Z30	X31	Y31	Z31	X32	Y32	Z32	X33	Y33	Z33	X34	Y34	Z34	X35	Y35	Z35	X36	Y36	Z36	X37	Y37	Z37	X38	Y38	Z38	X39	Y39	Z39	X40	Y40	Z40	X41	Y41	Z41	X42	Y42	Z42	X43	Y43	Z43	X44	Y44	Z44	X45	Y45	Z45	X46	Y46	Z46	X47	Y47	Z47	X48	Y48	Z48	X49	Y49	Z49	X50	Y50	Z50	X51	Y51	Z51	

1100	10.99000000	-131.24035	428.59672	-412.76903	-123.85262	357.34815	-392.32869	-264.09748	91.25071	-422.31742	-335.93121	54.86383	-460.12640	-167.51643	46.77675	-389.39725	-122.51701	65.58759	-443.80754	-196.42575	464.33835	-815.39961	-164.31556	401.38256	-848.66715	-266.93304	105.96163	-862.66477	-332.54916	68.82920	-809.23857	-184.43693	42.77258	-905.42658	-126.15532	62.34006	-859.32280	-164.98773	252.02509	-388.34794	-193.71747	384.23586	-394.43614	-243.28879	279.68583	-392.60957	-249.38882	427.15342	-835.34288	-275.63652	309.07667	-857.77241	-305.60001	677.93862	-381.31313	-218.16916	608.18292	-391.33523	-222.84297	557.99987	-347.17420	-352.22539	610.78430	-302.81381	-271.12951	531.68282	-331.58923	-360.24094	664.79296	-698.64697	-258.12827	594.24647	-756.69938	-437.63313	579.56854	-717.83726	-325.20191	509.94422	-772.17118	-325.71151	702.12681	-380.18001	-483.15582	792.60391	-446.40533	-346.04487	676.50689	-632.06665	-491.62743	778.86520	-551.08523	-124.71543	1071.58017	-474.11667	-92.01370	973.77180	-332.97056	-66.65275	1002.57929	-627.67339	-60.34051	936.62915	-457.12843	-54.81422	942.59702	-497.16417	-68.95405	772.26634	-224.22196	-68.48058	653.84698	-265.69308	-64.34246	691.88421	-194.30965	23.02887	757.70861	-229.00709	107.71138	816.20056	-280.16475	133.90016	779.75533	-275.33269	-32.17929	891.33026	-678.25754	-40.97545	669.54434	-657.33960	-28.03426	686.29018	-725.64341	74.49210	730.14252	-698.06122	172.34203	759.93501	-636.91462	192.06857	730.41279	-649.32077	-417.27093	661.21558	-393.94040	-430.51940	642.87511	-592.95018	-420.05294	657.97073	-402.99962	-433.46132	636.22542	-568.68293	
1101	11.00000000	-130.56537	428.16784	-413.47919	-123.22927	357.01453	-392.82234	-264.10241	91.28883	-422.41424	-335.94166	54.88900	-460.20242	-167.52764	46.84386	-389.45162	-122.52360	65.63278	-443.88605	-195.93679	464.05204	-815.59626	-163.76048	400.93693	-848.64340	-266.95567	105.84408	-862.65317	-332.60740	68.66259	-809.20703	-184.47349	42.78055	-905.43705	-126.20219	62.36139	-859.27671	-164.66879	251.98970	-388.54942	-193.14123	383.93499	-395.22970	-242.81415	279.52775	-392.87461	-248.81621	426.99215	-835.40965	-275.15372	309.00685	-857.74937	-306.82841	675.91201	-381.70294	-219.06416	606.96693	-391.41411	-223.02596	556.76651	-347.64674	-352.58419	608.52368	-302.89625	-270.87454	529.62474	-332.05469	-361.06082	662.82245	-698.32103	-258.48540	593.12978	-756.40915	-438.03966	577.17111	-717.78350	-325.00968	508.48710	-772.20788	-326.82407	700.00029	-379.02765	-483.89175	789.71346	-446.38007	-346.90805	673.28758	-632.19358	-492.35625	775.78614	-551.19021	-124.25867	1066.84612	-474.07629	-91.48116	969.06044	-332.93214	-66.14453	997.55356	-627.60115	-60.08487	931.12512	-456.82233	-54.74750	937.47117	-497.09725	-68.61494	767.48807	-224.41542	-68.14008	649.15623	-266.02421	-63.93825	687.19637	-194.56451	23.21668	753.27393	-229.37053	107.69574	811.82396	-280.68193	133.88830	775.47847	-275.76234	-31.26697	886.65825	-678.16973	-38.95913	664.93464	-657.45867	-25.95699	681.77438	-725.71499	75.73765	726.66464	-697.56185	173.12857	757.77520	-636.31632	193.38259	728.50487	-648.79999	-418.20890	658.75906	-393.44717	-431.19408	639.71854	-592.40850	-421.11359	655.03037	-401.93584	-434.56295	632.90047	-568.47386	
1102	11.01000000	-129.73761	427.85991	-414.25594	-122.62478	356.68087	-393.39876	-264.14692	91.32108	-422.52674	-335.95880	54.90427	-460.27183	-167.53030	46.93595	-389.53433	-122.55805	65.70887	-443.97888	-195.49082	463.56303	-815.50281	-163.24572	400.43242	-848.59501	-266.99878	105.71065	-862.67149	-332.68508	68.39722	-809.18950	-184.53591	42.75975	-905.43127	-126.28883	62.40239	-859.24047	-164.33064	251.84813	-388.80462	-192.95994	383.37278	-396.20117	-242.49665	279.43391	-393.13597	-248.26858	426.71070	-835.41134	-274.71510	309.08835	-857.89158	-308.03299	674.17646	-381.93942	-219.78564	605.79382	-391.77363	-223.14561	555.56420	-348.12696	-352.86896	606.38036	-303.06454	-270.63806	527.73226	-333.10191	-361.86174	660.89583	-698.06216	-258.92994	591.99586	-756.04743	-438.45731	574.87670	-717.88540	-324.94497	506.93699	-772.00642	-327.82766	697.54736	-378.57098	-484.60600	786.88182	-446.55129	-347.71668	670.10228	-632.27961	-492.97848	772.80787	-551.45707	-123.84715	1062.28717	-474.03642	-91.04507	964.53068	-333.04606	-65.63411	992.74794	-627.56762	-59.97127	926.11797	-456.83743	-54.69133	932.64731	-497.21282	-68.29106	762.93100	-224.63040	-67.81852	644.65922	-266.22685	-63.68514	682.85322	-194.59986	23.35202	748.94094	-229.64824	107.67277	807.61254	-281.16106	133.87718	771.32449	-276.22500	-30.43773	882.11721	-678.05055	-37.05856	660.45744	-657.47553	-24.02370	677.45056	-725.81366	76.93318	723.41678	-697.26918	173.85637	755.85831	-635.98263	194.65581	726.65267	-648.23181	-419.12626	656.16930	-393.28076	-431.91373	636.63671	-592.20810	-422.13128	652.15216	-401.56483	-435.45288	629.75969	-568.47836	
1103	11.02000000	-128.88319	427.79216	-414.93333	-122.02521	356.38165	-394.03141	-264.18485	91.36445	-422.62473	-335.97345	54.89984	-460.29199	-167.55637	47.01045	-389.60453	-122.57263	65.77101	-444.03836	-195.12073	462.94666	-815.30883	-162.82428	399.87559	-848.58611	-267.10222	105.45766	-862.61488	-332.83941	68.02204	-809.16156	-184.63731	42.70455	-905.40328	-126.41045	62.47067	-859.21087	-163.89111	251.57609	-389.23512	-192.44409	383.10746	-396.75661	-242.21427	279.34057	-393.38853	-247.76298	426.26271	-835.32359	-274.41766	309.09458	-858.07491	-309.20021	672.56875	-381.91534	-220.31495	604.59290	-392.35741	-223.20661	554.44371	-348.53364	-353.11389	604.38314	-303.11184	-270.48262	526.23662	-334.15413	-362.73216	658.92439	-697.76664	-259.37259	590.89023	-755.64234	-438.89944	572.49921	-717.73529	-324.94735	505.36362	-771.74954	-328.70883	694.78695	-378.89432	-485.31471	784.12010	-446.77342	-348.45724	667.07448	-632.41476	-493.59133	769.93430	-551.73157	-123.47230	1057.90860	-473.99553	-90.94460	959.99539	-333.29179	-65.14058	988.20344	-627.70004	-59.96327	921.48303	-457.01714	-54.61640	927.98345	-497.29758	-68.09436	758.70706	-224.65839	-67.56685	640.29663	-266.13160	-63.50508	678.72189	-194.55580	23.42047	744.70245	-229.85277	107.64125	803.52866	-281.53422	133.91306	767.30832	-276.58710	-29.66384	877.77197	-678.08917	-35.16549	656.15712	-657.22130	-22.18170	673.26491	-725.72289	78.22250	720.37868	-697.15870	174.59849	753.97598	-635.67072	195.73160	724.85181	-647.51146	-419.94040	653.41451	-393.45357	-432.69645	633.71401	-592.36635	-423.01645	649.41522	-401.90882	-436.16951	626.87159	-568.70285	
